<?xml version="1.0" encoding="utf-8"?>

<!DOCTYPE svg PUBLIC "-//W3C//DTD SVG 1.1//EN" "http://www.w3.org/Graphics/SVG/1.1/DTD/svg11.dtd">
<!-- Uploaded to: SVG Repo, www.svgrepo.com, Generator: SVG Repo Mixer Tools -->
<svg height="800px" width="800px" version="1.1" id="_x32_" xmlns="http://www.w3.org/2000/svg" xmlns:xlink="http://www.w3.org/1999/xlink" 
	 viewBox="0 0 512 512"  xml:space="preserve">
<style type="text/css">
	.st0{fill:#000000;}
</style>
<g>
	<path class="st0" d="M376.132,0H135.878C83.256,0,40.599,42.656,40.599,95.269v288.762c0,30.633,17.1,57.337,42.253,71.088v45.51
		c0,4.828,3.897,8.736,8.736,8.736h51.836c4.818,0,8.727-3.908,8.727-8.736v-35.626h204.648v37.88c0,5.024,4.052,9.118,9.108,9.118
		h54.122c5.035,0,9.118-4.094,9.118-9.118v-47.764c25.154-13.751,42.253-40.454,42.253-71.088V95.269
		C471.401,42.656,428.745,0,376.132,0z M171.307,56.861h169.384v22.972H171.307V56.861z M126.511,391.537
		c-11.652,0-21.101-9.45-21.101-21.101c0-11.65,9.45-21.1,21.101-21.1c11.662,0,21.11,9.45,21.11,21.1
		C147.622,382.087,138.173,391.537,126.511,391.537z M295.575,428.817h-79.15v-34.468h79.15V428.817z M127.741,287.553
		c-11.486,0-20.811-9.325-20.811-20.811V139.382c0-11.485,9.324-20.8,20.811-20.8h256.517c11.496,0,20.822,9.315,20.822,20.8
		v127.359c0,11.486-9.326,20.811-20.822,20.811H127.741z M385.489,391.537c-11.651,0-21.112-9.45-21.112-21.101
		c0-11.65,9.46-21.1,21.112-21.1c11.652,0,21.1,9.45,21.1,21.1C406.589,382.087,397.14,391.537,385.489,391.537z"/>
</g>
</svg>