<svg id="efUVQEj98HR1" xmlns="http://www.w3.org/2000/svg" xmlns:xlink="http://www.w3.org/1999/xlink" viewBox="-17.08 0 105 105" shape-rendering="geometricPrecision" text-rendering="geometricPrecision"><path d="M36.910996,4c26.24774,0,47.628342,28.790178,48.5,64.760238v32.239752c0,0-97,0-97,0q0,0,0-32.239752C-10.717346,32.790178,10.663256,4,36.910996,4Z" transform="translate(-1.60271 0)" fill="none" stroke="#000" stroke-width="8"/><g transform="translate(-8.739746-4.688917)"><path d="M26.06,0h35.66c5.85,0,13.01,7.56,14.14,13.28L88.61,77.61c1.14,5.73-6.25,13.98-12.09,13.98h-57.26c-13.85,0-21.72-2.78-18.56-19.5l11-58.25C12.78,8.08,20.2,0,26.06,0v0ZM8.97,122.88l9.88-22.91h12.19l-3.26,7.36h32.68L57.1,99.76h11.98l9.77,22.7h-11.77l-3.47-7.57h-39.4l-3.26,7.99h-11.98v0ZM28.55,68.71c4.36,0,7.89,3.53,7.89,7.89s-3.53,7.89-7.89,7.89-7.89-3.53-7.89-7.89s3.53-7.89,7.89-7.89v0ZM36.93,7.43h14.22c.36,0,.66.3.66.66v6.68c0,.36-.3.66-.66.66h-14.22c-.36,0-.66-.3-.66-.66v-6.68c0-.36.3-.66.66-.66v0ZM10.27,61.36l7.79-38.39h52.48l7.28,38.39h-67.55v0Zm49.26,7.35c4.36,0,7.89,3.53,7.89,7.89s-3.53,7.89-7.89,7.89-7.89-3.53-7.89-7.89s3.53-7.89,7.89-7.89v0Z" transform="matrix(.7 0 0 0.7 13.309928 18.432001)" clip-rule="evenodd" fill-rule="evenodd"/></g><path d="" fill="none" stroke="#3f5787" stroke-width="0.5"/></svg>
